<svg width="2732" height="2732" viewBox="0 0 2732 2732" fill="none" xmlns="http://www.w3.org/2000/svg">
  <!-- Background Gradient -->
  <defs>
    <linearGradient id="grad1" x1="0%" y1="0%" x2="100%" y2="100%">
      <stop offset="0%" style="stop-color:#4F46E5;stop-opacity:1" />
      <stop offset="100%" style="stop-color:#6366F1;stop-opacity:1" />
    </linearGradient>
  </defs>
  
  <rect width="2732" height="2732" fill="url(#grad1)"/>
  
  <!-- Center Logo -->
  <circle cx="1366" cy="1366" r="500" fill="#818CF8" opacity="0.3"/>
  <circle cx="1366" cy="1366" r="400" fill="#818CF8" opacity="0.5"/>
  <circle cx="1366" cy="1366" r="300" fill="#A5B4FC"/>
  
  <!-- Main Icon -->
  <path d="M1366 966C1166 966 1006 1126 1006 1326C1006 1526 1166 1686 1366 1686C1566 1686 1726 1526 1726 1326C1726 1126 1566 966 1366 966ZM1366 1606C1210 1606 1086 1482 1086 1326C1086 1170 1210 1046 1366 1046C1522 1046 1646 1170 1646 1326C1646 1482 1522 1606 1366 1606Z" fill="white"/>
  <circle cx="1366" cy="1326" r="120" fill="white"/>
  
  <!-- App Name (optional) -->
  <text x="1366" y="1900" font-family="Arial, sans-serif" font-size="80" fill="white" text-anchor="middle" font-weight="bold">Your App Name</text>
</svg>
